<?xml version="1.0" standalone="no"?>
<!DOCTYPE svg PUBLIC "-//W3C//DTD SVG 20010904//EN"
 "http://www.w3.org/TR/2001/REC-SVG-20010904/DTD/svg10.dtd">
<svg version="1.0" xmlns="http://www.w3.org/2000/svg"
 width="500.000000pt" height="500.000000pt" viewBox="0 0 500.000000 500.000000"
 preserveAspectRatio="xMidYMid meet">

<g transform="translate(0.000000,500.000000) scale(0.100000,-0.100000)"
fill="#000000" stroke="none">
<path d="M1517 4093 c-4 -3 -7 -11 -7 -17 0 -6 5 -5 12 2 6 6 9 14 7 17 -3 3
-9 2 -12 -2z"/>
<path d="M1493 4045 c-3 -9 -3 -18 -1 -21 3 -3 8 4 11 16 6 23 -1 27 -10 5z"/>
<path d="M1484 3974 c2 -22 15 -59 29 -82 49 -76 45 -103 -34 -220 -32 -47
-40 -70 -11 -33 9 13 30 38 45 57 16 18 30 39 31 46 1 7 7 23 14 35 14 25 16
60 4 65 -14 6 -62 95 -72 135 l-10 38 4 -41z"/>
<path d="M1975 3911 c3 -5 -5 -17 -17 -25 -12 -9 -18 -16 -13 -16 6 1 24 12
40 25 29 24 29 25 7 25 -13 0 -21 -4 -17 -9z"/>
<path d="M1928 3903 c6 -2 18 -2 25 0 6 3 1 5 -13 5 -14 0 -19 -2 -12 -5z"/>
<path d="M1865 3850 l-20 -9 20 0 c11 0 27 4 35 9 13 9 13 10 0 9 -8 0 -24 -4
-35 -9z"/>
<path d="M1660 3824 c-13 -15 -6 -17 24 -5 17 6 17 8 3 14 -8 3 -21 -1 -27 -9z"/>
<path d="M1723 3833 c9 -2 25 -2 35 0 9 3 1 5 -18 5 -19 0 -27 -2 -17 -5z"/>
<path d="M1793 3833 c9 -2 23 -2 30 0 6 3 -1 5 -18 5 -16 0 -22 -2 -12 -5z"/>
<path d="M1680 3735 c-11 -13 -10 -14 4 -9 13 5 15 2 10 -12 -9 -24 0 -16 15
14 9 18 9 22 -2 22 -8 0 -20 -7 -27 -15z"/>
<path d="M1617 3695 c-20 -14 -37 -28 -37 -31 0 -2 18 8 40 22 35 23 47 34 37
34 -1 0 -19 -11 -40 -25z"/>
<path d="M1291 3686 c2 -2 15 -9 29 -15 24 -11 24 -11 6 3 -16 13 -49 24 -35
12z"/>
<path d="M1358 3650 c6 -8 12 -18 12 -22 0 -4 -46 -9 -102 -10 l-103 -2 100
-5 c55 -3 106 -10 113 -14 17 -12 15 -52 -9 -127 -23 -76 -59 -247 -60 -293
l-1 -32 -13 30 c-18 39 -18 33 0 -62 8 -43 15 -111 15 -151 l0 -73 -37 30
c-45 35 -262 146 -270 137 -3 -3 7 -10 22 -16 45 -17 187 -90 220 -113 33 -23
52 -45 75 -88 14 -27 15 -25 13 49 0 42 -4 85 -9 95 -9 23 3 239 17 310 6 28
13 67 16 86 3 19 18 66 34 105 16 38 25 73 20 76 -4 3 -13 22 -20 42 -7 20
-20 42 -29 49 -14 11 -15 11 -4 -1z"/>
<path d="M1528 3623 c-38 -41 -74 -103 -59 -103 5 0 11 10 15 23 3 13 24 45
47 70 49 56 47 62 -3 10z"/>
<path d="M1430 3590 c-6 -11 -8 -20 -6 -20 3 0 10 9 16 20 6 11 8 20 6 20 -3
0 -10 -9 -16 -20z"/>
<path d="M1564 3556 c-28 -23 -59 -47 -70 -54 -10 -7 -1 -4 21 7 40 19 112 78
104 85 -2 2 -27 -15 -55 -38z"/>
<path d="M940 3514 c0 -6 17 -26 37 -45 20 -18 32 -27 25 -17 -10 13 -10 17 0
21 9 3 6 7 -7 12 -11 5 -28 15 -37 23 -10 8 -18 11 -18 6z"/>
<path d="M1428 3459 c-15 -22 -27 -39 -25 -39 9 0 66 69 60 73 -5 3 -20 -13
-35 -34z"/>
<path d="M1055 3445 c129 -103 168 -141 200 -194 12 -20 -8 -7 -78 51 -32 26
-61 48 -65 48 -4 -1 9 -13 28 -28 19 -15 56 -47 83 -71 49 -45 64 -49 52 -11
-9 29 -162 181 -205 203 -26 14 -30 14 -15 2z"/>
<path d="M1064 3383 c16 -18 32 -31 34 -28 3 3 3 6 1 8 -2 1 -17 13 -34 27
l-30 25 29 -32z"/>
<path d="M1250 3371 c0 -36 3 -40 31 -46 17 -4 32 -5 34 -3 2 2 7 23 11 46 l7
42 -42 0 -41 0 0 -39z"/>
<path d="M1402 3390 c-25 -27 -47 -69 -40 -76 4 -3 25 -8 47 -11 29 -4 49 0
74 14 38 23 143 59 200 69 83 14 41 24 -107 24 -143 0 -157 -2 -174 -20z"/>
<path d="M1865 3383 c-10 -15 -24 -33 -30 -39 -25 -25 -130 -78 -198 -99 l-72
-23 -3 -151 c-1 -83 1 -151 5 -151 5 0 18 22 31 49 22 50 114 151 136 151 6 0
2 -7 -8 -15 -12 -9 -15 -15 -7 -15 7 0 -5 -18 -27 -40 -38 -38 -72 -97 -107
-184 -8 -22 -14 -41 -12 -43 5 -4 89 87 133 143 46 58 58 84 45 97 -7 7 -7 14
1 24 9 11 7 12 -8 6 -16 -6 -17 -4 -7 9 7 8 11 17 8 20 -3 3 1 11 10 18 10 9
15 31 15 76 l0 63 38 6 c83 12 219 37 250 47 29 9 33 13 30 41 l-3 32 -101 3
c-101 3 -101 3 -119 -25z"/>
<path d="M2350 3370 c0 -33 4 -40 23 -44 12 -3 78 -15 147 -27 69 -12 128 -25
132 -28 5 -4 1 -286 -7 -626 -8 -341 -15 -668 -15 -727 0 -89 -3 -108 -15
-108 -13 0 -15 41 -17 283 l-3 282 -34 0 -34 0 -19 -95 c-19 -99 -33 -173 -64
-347 l-19 -103 -327 0 -328 0 0 425 c0 393 -3 450 -25 415 -9 -15 -27 -12 -19
3 4 7 3 9 -2 4 -5 -5 -9 -13 -9 -19 0 -11 -141 -88 -160 -87 -5 0 19 16 55 35
36 19 54 32 40 29 -29 -6 -25 -3 63 51 37 23 57 42 57 55 0 24 -2 24 -50 -1
-46 -23 -54 -25 -44 -7 4 6 -5 -1 -20 -16 -16 -17 -33 -27 -42 -23 -8 3 -13 2
-10 -2 3 -5 -8 -16 -25 -26 -16 -9 -29 -21 -29 -27 0 -13 5 -12 46 16 49 33
80 34 39 0 -19 -16 -25 -25 -15 -25 23 -1 -97 -61 -131 -65 -16 -2 -29 -1 -29
2 0 18 75 157 102 191 18 22 44 55 58 73 32 43 126 139 135 139 4 0 -24 -34
-63 -75 -39 -41 -83 -92 -96 -114 -14 -22 -30 -42 -36 -46 -5 -3 -10 -18 -10
-32 0 -21 2 -23 15 -13 8 7 56 34 107 60 l93 47 2 101 c1 56 -2 104 -6 106 -4
3 -20 -11 -37 -31 -16 -20 -47 -57 -69 -83 -22 -25 -51 -61 -65 -79 -14 -18
-35 -45 -48 -60 l-24 -26 6 50 c4 34 3 45 -4 35 -5 -8 -10 -29 -10 -45 0 -17
-6 -39 -13 -50 -7 -11 -14 -31 -15 -45 0 -14 -8 -41 -16 -60 -37 -88 -67 -181
-63 -192 2 -7 9 5 15 27 16 55 37 82 84 106 22 11 41 19 42 17 2 -2 0 -172 -3
-378 l-6 -375 -72 -14 c-65 -12 -73 -16 -73 -36 0 -13 -6 -25 -14 -28 -18 -7
-26 1 -26 26 0 12 -5 17 -14 14 -8 -3 -31 -9 -50 -13 -34 -6 -36 -8 -36 -45
l0 -39 1265 0 c1055 0 1265 2 1265 13 0 19 -52 89 -85 115 -27 22 -33 22 -431
22 l-404 0 0 335 0 335 249 0 249 0 22 -62 c57 -168 54 -163 88 -166 l31 -3 0
153 1 154 -54 53 c-53 53 -86 63 -86 26 0 -13 -32 -15 -250 -15 l-250 0 0 310
0 310 384 0 c358 0 385 -1 390 -17 2 -10 10 -44 17 -75 7 -32 16 -58 21 -58 4
0 8 6 8 13 0 20 51 88 63 84 33 -11 50 -228 22 -277 -19 -34 -18 -40 5 -40 19
0 20 7 20 260 l0 260 -720 0 -720 0 0 -40z m-650 -670 c0 -5 -4 -10 -10 -10
-5 0 -10 5 -10 10 0 6 5 10 10 10 6 0 10 -4 10 -10z"/>
<path d="M1710 3366 c-101 -22 -184 -50 -205 -68 -13 -12 12 -10 37 3 18 9 19
8 13 -10 -5 -16 -1 -23 15 -29 19 -7 18 -9 -16 -25 -20 -10 -34 -21 -30 -24 3
-3 12 -1 19 6 8 6 32 17 53 25 26 10 32 15 19 16 -16 1 -14 4 10 15 40 19 67
18 35 0 -14 -8 -20 -14 -14 -15 17 0 116 46 139 65 11 9 -2 5 -30 -10 -27 -14
-54 -25 -60 -25 -14 0 117 73 132 73 6 0 9 6 6 14 -6 16 5 17 -123 -11z"/>
<path d="M1470 3195 c-45 -17 -90 -19 -91 -2 0 6 -4 3 -9 -8 -5 -11 -8 -45 -8
-75 1 -52 2 -53 5 -10 5 57 14 66 67 74 24 4 52 13 62 21 23 17 19 17 -26 0z"/>
<path d="M1779 3143 c-22 -25 -22 -26 -1 -9 27 24 39 14 24 -19 -6 -14 -9 -25
-6 -25 5 0 34 64 34 75 0 15 -29 2 -51 -22z"/>
<path d="M3709 3118 c-10 -39 -5 -160 8 -182 12 -18 32 41 33 94 0 68 -10 130
-21 130 -4 0 -13 -19 -20 -42z"/>
<path d="M875 3088 c4 -13 13 -29 21 -36 9 -7 10 -8 4 0 -16 19 -12 38 8 39
14 0 14 2 -3 9 -32 14 -37 11 -30 -12z"/>
<path d="M2135 3100 c-3 -6 1 -7 9 -4 18 7 21 14 7 14 -6 0 -13 -4 -16 -10z"/>
<path d="M950 3075 c14 -8 30 -14 35 -14 6 0 -1 6 -15 14 -14 8 -29 14 -35 14
-5 0 1 -6 15 -14z"/>
<path d="M1666 3050 c-20 -22 -36 -43 -36 -47 0 -4 3 -3 8 3 4 5 23 26 41 47
19 20 32 37 29 37 -3 0 -22 -18 -42 -40z"/>
<path d="M1486 3065 c-9 -26 -7 -32 5 -12 6 10 9 21 6 23 -2 3 -7 -2 -11 -11z"/>
<path d="M1776 3065 c-9 -26 -7 -32 5 -12 6 10 9 21 6 23 -2 3 -7 -2 -11 -11z"/>
<path d="M2058 3073 c7 -3 16 -2 19 1 4 3 -2 6 -13 5 -11 0 -14 -3 -6 -6z"/>
<path d="M3682 3055 c0 -16 2 -22 5 -12 2 9 2 23 0 30 -3 6 -5 -1 -5 -18z"/>
<path d="M2018 3063 c7 -3 16 -2 19 1 4 3 -2 6 -13 5 -11 0 -14 -3 -6 -6z"/>
<path d="M1807 3027 c-27 -24 -28 -26 -5 -12 14 9 62 22 105 30 l78 13 -73 -2
c-65 -1 -77 -4 -105 -29z"/>
<path d="M1345 3020 c-4 -17 -5 -34 -2 -36 3 -3 8 9 12 26 4 17 5 34 2 36 -3
3 -8 -9 -12 -26z"/>
<path d="M1542 3030 c0 -14 2 -19 5 -12 2 6 2 18 0 25 -3 6 -5 1 -5 -13z"/>
<path d="M3581 3020 c0 -8 4 -24 9 -35 5 -13 9 -14 9 -5 0 8 -4 24 -9 35 -5
13 -9 14 -9 5z"/>
<path d="M3756 2975 c-9 -26 -7 -32 5 -12 6 10 9 21 6 23 -2 3 -7 -2 -11 -11z"/>
<path d="M1462 2950 c0 -19 2 -27 5 -17 2 9 2 25 0 35 -3 9 -5 1 -5 -18z"/>
<path d="M1606 2963 c-6 -14 -5 -15 5 -6 7 7 10 15 7 18 -3 3 -9 -2 -12 -12z"/>
<path d="M971 2964 c1 -10 68 -68 73 -63 1 2 -15 19 -36 38 -21 18 -38 29 -37
25z"/>
<path d="M3706 2895 c2 -11 4 -27 4 -35 1 -8 8 -2 16 13 9 16 13 31 10 35 -3
3 -6 0 -6 -6 0 -16 -17 -15 -23 1 -2 6 -3 3 -1 -8z"/>
<path d="M3641 2902 c-1 -8 -6 -10 -13 -6 -8 5 -7 1 2 -10 15 -19 26 -7 17 17
-4 9 -6 9 -6 -1z"/>
<path d="M1084 2875 c11 -8 26 -15 33 -15 22 0 14 8 -19 19 -30 10 -31 9 -14
-4z"/>
<path d="M3429 2843 c-6 -16 -15 -39 -19 -53 -4 -14 -11 -32 -15 -41 -6 -17
36 -48 84 -64 20 -6 21 -4 21 89 l0 96 -30 0 c-24 0 -33 -6 -41 -27z"/>
<path d="M1150 2852 c8 -5 26 -13 40 -16 17 -5 20 -4 10 2 -8 5 -26 13 -40 16
-17 5 -20 4 -10 -2z"/>
<path d="M1462 2825 c0 -16 2 -22 5 -12 2 9 2 23 0 30 -3 6 -5 -1 -5 -18z"/>
<path d="M1910 2840 c-8 -5 -12 -12 -9 -15 4 -3 12 1 19 10 14 17 11 19 -10 5z"/>
<path d="M1214 2816 c-8 -9 -1 -12 30 -13 23 0 34 1 26 4 -8 3 -22 9 -30 13
-8 5 -20 3 -26 -4z"/>
<path d="M1140 2785 c-14 -8 -20 -14 -15 -14 6 0 21 6 35 14 14 8 21 14 15 14
-5 0 -21 -6 -35 -14z"/>
<path d="M1296 2792 c7 -4 16 -68 23 -157 7 -82 13 -165 14 -182 2 -18 0 -33
-4 -33 -3 0 -23 25 -43 55 -20 31 -40 53 -45 51 -16 -10 -21 -250 -6 -312 20
-84 19 -89 -11 -65 -15 12 -36 21 -48 20 -16 -1 -15 -3 8 -9 51 -16 145 -124
150 -173 1 -13 5 -28 9 -34 4 -7 11 -56 15 -110 l7 -98 6 100 c4 55 13 126 20
157 10 47 10 82 -1 186 -10 103 -10 136 0 166 6 20 10 39 7 42 -11 11 -38
-101 -32 -133 24 -128 23 -282 -1 -290 -6 -2 -18 13 -27 34 -9 21 -28 58 -41
83 -46 82 -59 159 -51 294 l7 120 23 -28 c21 -26 55 -95 69 -140 12 -36 13
-11 4 64 -10 80 -6 277 7 322 8 31 -2 88 -13 71 -5 -8 -13 -9 -22 -3 -8 6 -19
10 -25 10 -5 0 -5 -4 1 -8z m46 -76 c-9 -18 -11 -16 -11 19 0 33 1 37 10 21 8
-12 8 -25 1 -40z"/>
<path d="M1770 2785 c-14 -8 -20 -14 -14 -15 5 0 19 7 30 15 24 18 16 19 -16
0z"/>
<path d="M3691 2780 c14 -31 19 -36 19 -24 0 6 -7 19 -16 30 -14 18 -14 18 -3
-6z"/>
<path d="M1075 2760 c-13 -6 -15 -9 -5 -9 8 0 22 4 30 9 18 12 2 12 -25 0z"/>
<path d="M1824 2738 l-19 -23 23 19 c21 18 27 26 19 26 -2 0 -12 -10 -23 -22z"/>
<path d="M3953 2705 c0 -22 2 -30 4 -17 2 12 2 30 0 40 -3 9 -5 -1 -4 -23z"/>
<path d="M3369 2712 c14 -9 65 -56 115 -104 49 -48 91 -87 92 -85 5 5 -172
184 -193 195 -32 18 -42 14 -14 -6z"/>
<path d="M1760 2700 c-9 -6 -10 -10 -3 -10 6 0 15 5 18 10 8 12 4 12 -15 0z"/>
<path d="M3911 2694 c0 -11 3 -14 6 -6 3 7 2 16 -1 19 -3 4 -6 -2 -5 -13z"/>
<path d="M3450 2676 c0 -2 7 -7 16 -10 8 -3 12 -2 9 4 -6 10 -25 14 -25 6z"/>
<path d="M1675 2650 c-3 -5 -2 -10 4 -10 5 0 13 5 16 10 3 6 2 10 -4 10 -5 0
-13 -4 -16 -10z"/>
<path d="M3750 2629 c0 -4 7 -22 15 -40 8 -19 14 -27 14 -19 0 14 -28 72 -29
59z"/>
<path d="M3915 2619 c-4 -6 -5 -12 -2 -15 2 -3 7 2 10 11 7 17 1 20 -8 4z"/>
<path d="M3851 2603 c-1 -29 -17 -38 -30 -16 -6 10 -10 14 -10 8 -1 -5 7 -20
17 -33 l18 -23 27 29 c20 20 23 29 12 29 -8 0 -15 -5 -16 -11 -1 -6 -5 0 -9
14 -7 23 -8 23 -9 3z"/>
<path d="M3570 2596 c0 -2 8 -10 18 -17 15 -13 16 -12 3 4 -13 16 -21 21 -21
13z"/>
<path d="M3628 2528 c17 -20 35 -45 40 -55 6 -10 13 -15 16 -12 3 3 -15 27
-40 55 -25 27 -32 32 -16 12z"/>
<path d="M4230 2560 c-8 -26 -7 -41 2 -32 6 6 8 16 5 24 -3 7 -6 11 -7 8z"/>
<path d="M3785 2520 c3 -14 14 -56 25 -95 11 -38 27 -104 36 -145 9 -41 18
-78 20 -82 3 -5 0 -8 -6 -8 -6 0 -13 7 -16 15 -3 8 -21 23 -40 34 -32 19 -33
23 -28 63 3 25 -1 62 -9 88 l-14 45 4 -70 4 -70 -25 69 c-14 38 -30 74 -36 80
-14 14 -13 5 9 -45 10 -24 22 -55 26 -69 l6 -25 -20 25 c-11 14 -21 22 -21 19
0 -18 32 -63 61 -87 118 -96 117 -94 164 -316 32 -151 31 -158 -5 -108 -28 39
-74 72 -101 72 -14 0 -5 -59 12 -75 7 -7 7 -1 0 18 -15 39 -14 47 7 40 42 -15
112 -110 112 -153 0 -6 7 -25 16 -41 8 -17 14 -37 12 -46 -4 -20 -44 17 -83
75 -15 23 -29 42 -32 42 -11 0 35 -69 75 -112 41 -44 46 -55 57 -126 7 -42 11
-79 9 -81 -2 -2 -11 2 -21 10 -13 11 -12 7 4 -16 15 -22 23 -53 28 -120 l7
-90 -25 24 c-24 22 -25 22 -20 3 3 -12 16 -28 29 -37 24 -15 24 -17 24 -180 0
-101 4 -165 10 -165 6 0 9 65 7 173 -2 158 -1 172 16 171 12 -1 17 5 17 22 0
26 -10 30 -27 13 -13 -13 -15 0 -34 188 -6 62 -9 119 -6 128 5 10 22 15 59 17
47 1 49 2 13 5 -58 6 -62 16 -25 63 18 22 30 43 28 45 -3 3 -20 -16 -39 -42
-25 -35 -35 -43 -37 -30 -2 9 -7 17 -12 17 -4 0 -11 19 -15 43 -3 23 -16 93
-28 154 -19 102 -20 114 -6 125 9 7 27 29 40 48 13 20 16 30 7 22 -14 -11 -19
-9 -32 10 -9 12 -16 28 -16 34 0 6 -7 17 -15 24 -10 9 -8 -4 8 -49 18 -49 19
-63 9 -73 -10 -10 -15 -10 -22 2 -5 8 -10 25 -10 36 0 12 -12 66 -26 120 -53
204 -72 288 -66 303 3 9 1 12 -4 8 -5 -5 -16 13 -26 40 -10 26 -16 37 -13 23z"/>
<path d="M3597 2485 c10 -13 22 -25 26 -25 4 0 0 11 -10 25 -10 13 -22 25 -26
25 -4 0 0 -11 10 -25z"/>
<path d="M3831 2494 c0 -11 3 -14 6 -6 3 7 2 16 -1 19 -3 4 -6 -2 -5 -13z"/>
<path d="M4155 2500 c-3 -6 1 -7 9 -4 18 7 21 14 7 14 -6 0 -13 -4 -16 -10z"/>
<path d="M3750 2485 c0 -5 5 -17 10 -25 5 -8 10 -10 10 -5 0 6 -5 17 -10 25
-5 8 -10 11 -10 5z"/>
<path d="M3630 2446 c0 -2 8 -10 18 -17 15 -13 16 -12 3 4 -13 16 -21 21 -21
13z"/>
<path d="M3675 2386 c10 -14 19 -26 22 -26 7 0 -17 39 -28 46 -6 3 -3 -5 6
-20z"/>
<path d="M3565 2390 c27 -12 43 -12 25 0 -8 5 -22 9 -30 9 -10 0 -8 -3 5 -9z"/>
<path d="M4046 2375 c-9 -26 -7 -32 5 -12 6 10 9 21 6 23 -2 3 -7 -2 -11 -11z"/>
<path d="M3640 2366 c0 -2 7 -7 16 -10 8 -3 12 -2 9 4 -6 10 -25 14 -25 6z"/>
<path d="M4021 2309 c-6 -18 -11 -41 -10 -53 0 -12 7 1 14 29 16 56 13 72 -4
24z"/>
<path d="M3730 2183 c-7 -32 -16 -71 -21 -87 -12 -39 -11 -93 2 -158 6 -29 13
-62 15 -73 2 -12 23 -50 46 -85 l43 -64 3 48 c2 27 -2 62 -7 79 -14 38 -14 77
-1 77 6 0 10 53 10 139 l0 140 -29 20 c-16 12 -34 21 -39 21 -6 0 -16 -26 -22
-57z"/>
<path d="M3907 2233 c-9 -9 -8 -53 3 -78 5 -14 7 -3 6 32 0 29 -1 53 -2 53 0
0 -4 -3 -7 -7z"/>
<path d="M3992 2191 c-7 -21 -12 -51 -11 -67 0 -17 6 -3 15 35 15 73 13 91 -4
32z"/>
<path d="M1058 2173 c12 -2 32 -2 45 0 12 2 2 4 -23 4 -25 0 -35 -2 -22 -4z"/>
<path d="M1007 2164 c-8 -8 1 -24 12 -24 4 0 8 7 8 15 0 16 -9 20 -20 9z"/>
<path d="M4046 2123 c-6 -14 -5 -15 5 -6 7 7 10 15 7 18 -3 3 -9 -2 -12 -12z"/>
<path d="M4020 2085 c-7 -9 -10 -18 -7 -21 3 -3 10 4 17 15 13 25 8 27 -10 6z"/>
<path d="M3510 2056 c0 -3 9 -10 20 -16 11 -6 20 -8 20 -6 0 3 -9 10 -20 16
-11 6 -20 8 -20 6z"/>
<path d="M3560 2026 c0 -2 8 -10 18 -17 15 -13 16 -12 3 4 -13 16 -21 21 -21
13z"/>
<path d="M1260 2016 c0 -2 7 -7 16 -10 8 -3 12 -2 9 4 -6 10 -25 14 -25 6z"/>
<path d="M3214 2011 c3 -5 17 -11 31 -13 13 -3 22 -1 19 3 -6 11 20 11 154 0
121 -10 189 -39 246 -101 38 -42 46 -63 21 -54 -9 4 9 -19 40 -50 30 -31 55
-61 55 -67 0 -13 63 -98 73 -99 5 0 -21 43 -57 94 -36 52 -72 110 -79 128 -21
48 -73 115 -99 128 -21 10 -21 10 -5 -3 31 -26 18 -26 -37 -1 -59 27 -173 44
-294 44 -40 0 -71 -4 -68 -9z"/>
<path d="M3300 1975 c14 -8 30 -14 35 -14 6 0 -1 6 -15 14 -14 8 -29 14 -35
14 -5 0 1 -6 15 -14z"/>
<path d="M3355 1950 c3 -5 16 -10 28 -9 21 0 21 1 2 9 -28 12 -37 12 -30 0z"/>
<path d="M3440 1925 c19 -7 42 -13 50 -13 8 0 -1 6 -20 13 -19 7 -42 13 -50
13 -8 0 1 -6 20 -13z"/>
<path d="M3535 1902 c31 -14 83 -24 65 -13 -8 5 -31 11 -50 15 -24 4 -28 3
-15 -2z"/>
<path d="M4075 1863 c-36 -56 -65 -136 -64 -178 0 -19 7 -5 18 40 19 76 31
103 68 153 13 17 20 32 16 32 -4 0 -21 -21 -38 -47z"/>
<path d="M3620 1875 c0 -2 10 -10 23 -16 20 -11 21 -11 8 4 -13 16 -31 23 -31
12z"/>
<path d="M4156 1855 c-9 -26 -7 -32 5 -12 6 10 9 21 6 23 -2 3 -7 -2 -11 -11z"/>
<path d="M3846 1797 c3 -10 9 -15 12 -12 3 3 0 11 -7 18 -10 9 -11 8 -5 -6z"/>
<path d="M4100 1735 c-7 -9 -8 -15 -2 -15 5 0 12 7 16 15 3 8 4 15 2 15 -2 0
-9 -7 -16 -15z"/>
<path d="M3728 1613 c6 -2 18 -2 25 0 6 3 1 5 -13 5 -14 0 -19 -2 -12 -5z"/>
<path d="M4185 1610 c-16 -7 -17 -9 -3 -9 9 -1 20 4 23 9 7 11 7 11 -20 0z"/>
<path d="M3662 1601 c-10 -6 -9 -10 7 -14 12 -3 19 -1 16 3 -3 5 1 11 7 13 9
4 8 6 -2 6 -8 0 -21 -3 -28 -8z"/>
<path d="M3840 1600 c0 -5 5 -10 11 -10 5 0 7 5 4 10 -3 6 -8 10 -11 10 -2 0
-4 -4 -4 -10z"/>
<path d="M3778 1583 c6 -2 18 -2 25 0 6 3 1 5 -13 5 -14 0 -19 -2 -12 -5z"/>
<path d="M3887 1580 c21 -34 53 -72 53 -63 0 5 -14 24 -31 43 -17 19 -27 28
-22 20z"/>
<path d="M1340 1425 c7 -9 11 -36 8 -70 l-3 -55 43 0 c37 0 42 3 41 23 -1 16
-2 18 -6 5 -3 -12 -14 -18 -34 -18 -29 0 -29 1 -29 55 0 41 4 56 18 64 14 9
11 10 -17 11 -28 0 -32 -2 -21 -15z"/>
<path d="M1493 1429 c13 -8 17 -22 16 -60 -2 -54 8 -69 48 -69 20 0 53 33 53
52 0 19 -19 6 -22 -14 -3 -26 -32 -35 -53 -18 -19 16 -20 106 -2 113 6 3 -4 6
-23 6 -29 0 -32 -1 -17 -10z"/>
<path d="M1578 1433 c6 -2 12 -16 12 -29 0 -34 17 -30 22 6 4 27 2 30 -21 29
-14 0 -20 -3 -13 -6z"/>
<path d="M1690 1430 c13 -7 15 -21 10 -69 -5 -57 -4 -61 15 -61 14 0 16 3 7 9
-9 5 -12 24 -9 57 2 35 6 43 11 29 4 -11 16 -38 26 -60 16 -34 20 -37 25 -20
3 11 15 38 25 60 l20 40 -3 -58 c-2 -45 1 -57 13 -57 12 0 15 14 15 70 0 58
-3 70 -16 70 -10 0 -25 -20 -38 -52 -24 -58 -32 -55 -51 15 -9 31 -15 37 -38
37 -21 -1 -23 -3 -12 -10z"/>
<path d="M1928 1428 c16 -16 16 -115 0 -121 -7 -3 13 -6 45 -6 53 -1 57 1 56
22 -1 17 -2 18 -6 4 -4 -14 -13 -17 -36 -15 -27 2 -32 7 -32 28 0 19 5 25 23
24 12 0 22 3 22 8 0 4 -12 8 -26 8 -21 0 -25 4 -22 23 2 18 8 21 33 19 16 -2
33 -9 37 -15 5 -7 8 -3 8 11 0 20 -5 22 -57 22 -44 0 -54 -3 -45 -12z"/>
<path d="M2139 1413 c-24 -67 -33 -89 -42 -100 -7 -10 -4 -13 11 -13 15 0 19
5 15 20 -7 28 45 41 63 15 7 -10 11 -22 8 -26 -3 -5 1 -9 10 -9 12 0 10 12
-10 66 -13 37 -24 69 -24 70 0 2 -5 4 -10 4 -6 0 -15 -12 -21 -27z m24 -51
c-22 -5 -26 4 -18 35 l8 28 12 -30 c11 -26 11 -30 -2 -33z"/>
<path d="M2358 1433 c7 -3 12 -26 12 -63 0 -37 -5 -60 -12 -63 -7 -3 13 -6 45
-6 48 -1 57 2 56 17 0 10 -3 12 -6 5 -2 -7 -18 -13 -34 -13 -26 0 -29 3 -29
31 0 26 3 31 20 26 11 -3 20 -1 20 4 0 5 -9 9 -20 9 -15 0 -20 7 -20 25 0 20
5 25 25 25 13 0 29 -8 34 -17 9 -16 10 -16 11 5 0 20 -4 22 -57 21 -32 0 -52
-3 -45 -6z"/>
<path d="M2540 1425 c7 -9 11 -36 8 -70 l-3 -55 30 1 c17 1 22 3 13 6 -14 4
-18 15 -18 58 0 60 5 67 37 54 31 -11 39 -53 18 -85 -12 -19 -13 -25 -3 -22
22 7 42 52 35 79 -8 30 -44 49 -94 49 -30 0 -34 -2 -23 -15z"/>
<path d="M2730 1425 c7 -8 10 -25 6 -40 -9 -36 3 -73 26 -81 31 -10 65 4 71
28 l6 23 -16 -22 c-17 -25 -42 -30 -61 -11 -16 16 -16 105 1 111 6 3 -1 6 -17
6 -24 1 -27 -1 -16 -14z"/>
<path d="M2813 1429 c11 -7 23 -7 35 0 14 9 11 10 -18 10 -29 0 -32 -1 -17
-10z"/>
<path d="M2933 1414 c-20 -20 -24 -31 -19 -57 8 -40 30 -57 73 -57 28 0 33 4
33 23 -1 20 -2 20 -11 5 -26 -46 -87 4 -74 62 4 16 10 30 15 30 5 0 15 3 23 6
8 3 22 -2 31 -11 15 -15 16 -15 16 4 0 31 -54 28 -87 -5z"/>
<path d="M3122 1408 c-6 -18 -17 -50 -26 -70 -15 -35 -15 -38 1 -38 9 0 13 3
10 6 -11 11 13 44 32 44 22 0 45 -25 36 -40 -3 -6 3 -10 14 -10 21 0 21 0 2
43 -11 23 -24 54 -30 70 -14 36 -28 34 -39 -5z m37 -40 c1 -5 -8 -8 -19 -8
-23 0 -24 4 -8 33 11 21 11 21 19 2 4 -11 8 -23 8 -27z"/>
<path d="M3245 1429 c-11 -16 1 -22 23 -10 11 6 22 7 26 4 11 -11 6 -99 -6
-111 -9 -9 -5 -12 18 -11 16 0 23 3 17 6 -17 6 -17 109 -1 119 6 4 19 -3 30
-16 l18 -22 0 26 c0 25 -2 26 -59 26 -33 0 -63 -5 -66 -11z"/>
<path d="M3428 1431 c10 -6 13 -26 10 -70 -2 -49 0 -61 12 -61 12 0 14 12 12
61 -3 44 0 64 10 70 8 6 1 9 -22 9 -23 0 -30 -3 -22 -9z"/>
<path d="M3562 1420 c-41 -39 -16 -120 38 -120 29 0 60 36 60 70 0 33 -30 70
-58 70 -10 0 -28 -9 -40 -20z m76 -43 c4 -42 -11 -67 -38 -67 -25 0 -43 26
-42 60 1 42 10 52 45 48 29 -3 32 -6 35 -41z"/>
<path d="M3728 1431 c10 -6 13 -26 10 -70 -3 -56 -1 -61 17 -60 11 0 14 3 8 6
-8 3 -13 23 -13 49 0 44 14 59 25 27 3 -10 19 -34 35 -53 27 -32 29 -33 30
-12 0 12 -4 22 -9 22 -5 0 -23 23 -40 50 -22 36 -37 50 -53 50 -17 0 -19 -3
-10 -9z"/>
<path d="M3823 1429 c14 -8 22 -8 30 0 8 8 3 11 -18 11 -26 -1 -28 -2 -12 -11z"/>
<path d="M4216 1411 c-4 -5 -1 -11 6 -13 9 -3 8 -12 -5 -34 l-18 -29 20 24
c12 13 21 32 21 42 0 20 -15 26 -24 10z"/>
<path d="M4155 1380 c-3 -6 1 -7 9 -4 18 7 21 14 7 14 -6 0 -13 -4 -16 -10z"/>
<path d="M3912 1288 c2 -6 15 -18 29 -26 23 -13 23 -13 5 2 -20 16 -20 16 0
16 16 0 17 2 4 10 -21 13 -42 12 -38 -2z"/>
<path d="M4098 1253 c7 -3 16 -2 19 1 4 3 -2 6 -13 5 -11 0 -14 -3 -6 -6z"/>
<path d="M4150 1246 c0 -2 7 -9 15 -16 9 -7 15 -8 15 -2 0 5 -7 12 -15 16 -8
3 -15 4 -15 2z"/>
<path d="M4138 1213 c7 -3 16 -2 19 1 4 3 -2 6 -13 5 -11 0 -14 -3 -6 -6z"/>
</g>
</svg>
